<?xml version="1.0" standalone="no"?><!DOCTYPE svg PUBLIC "-//W3C//DTD SVG 1.1//EN" "http://www.w3.org/Graphics/SVG/1.1/DTD/svg11.dtd"><svg xmlns="http://www.w3.org/2000/svg" xmlns:xlink="http://www.w3.org/1999/xlink"><symbol class="aicon" viewBox="0 0 1024 1024" id="add" xmlns="http://www.w3.org/2000/svg"><path fill="#333" d="M512 889.6c-209.067 0-377.6-168.533-377.6-377.6 0-209.067 168.533-377.6 377.6-377.6 209.067 0 377.6 168.533 377.6 377.6 0 209.067-168.533 377.6-377.6 377.6zm0-706.133c-181.333 0-328.533 147.2-328.533 328.533S330.667 840.533 512 840.533 840.533 693.333 840.533 512 693.333 183.467 512 183.467zm177.067 349.866H334.933c-12.8 0-25.6-10.666-25.6-25.6 0-12.8 10.667-25.6 25.6-25.6H691.2c12.8 0 25.6 10.667 25.6 25.6-2.133 14.934-12.8 25.6-27.733 25.6zM486.4 686.933V330.667c0-12.8 10.667-25.6 25.6-25.6 12.8 0 25.6 10.666 25.6 25.6v356.266c0 12.8-10.667 25.6-25.6 25.6-12.8-2.133-25.6-12.8-25.6-25.6z"/></symbol><symbol class="bicon" viewBox="0 0 1109 1024" id="alipay" xmlns="http://www.w3.org/2000/svg"><path fill="#333" d="M1027.282 701.046V196.923C1027.282 88.615 938.667 0 830.36 0H200.205C91.897 0 3.282 88.615 3.282 196.923v630.154C3.282 935.385 91.897 1024 200.205 1024H830.36c96.492 0 177.23-70.892 192.985-161.477-53.17-21.661-277.662-120.123-395.816-177.23C536.944 793.6 444.39 858.584 302.605 858.584c-141.784 0-236.308-86.647-224.492-194.954 7.877-70.893 55.138-185.108 263.877-165.416 110.277 9.847 159.507 31.508 250.092 61.047 23.63-43.324 43.323-88.616 57.108-139.816H251.405v-39.384h196.923v-70.893H208.082v-43.323h240.246v-100.43s1.97-15.754 19.693-15.754h98.461v118.153h256v43.323h-256v70.893h208.739c-19.693 78.769-49.231 149.661-84.677 212.677 61.046 21.661 336.738 106.338 336.738 106.338zm-905.846-43.323c-7.877 39.385 15.754 133.908 165.415 133.908 92.554 0 181.17-55.139 254.031-149.662-102.4-49.23-189.046-74.83-283.57-74.83-84.676 0-128 51.2-135.876 90.584z"/></symbol><symbol class="cicon" viewBox="0 0 1024 1024" id="cancel" xmlns="http://www.w3.org/2000/svg"><path fill="#333" d="M245.64 190.714l586.505 586.505c8.525 8.525 8.525 22.345 0 30.87l-23.15 23.15c-8.525 8.525-22.346 8.525-30.87 0L191.62 244.735c-8.524-8.524-8.524-22.345 0-30.87l23.152-23.15c8.524-8.525 22.343-8.525 30.868 0zm586.505 54.02L245.64 831.24c-8.525 8.524-22.345 8.524-30.87 0l-23.15-23.151c-8.525-8.525-8.525-22.345 0-30.87l586.505-586.505c8.524-8.525 22.345-8.525 30.87 0l23.15 23.15c8.525 8.525 8.525 22.346 0 30.87z"/></symbol><symbol class="dicon" viewBox="0 0 1024 1024" id="card" xmlns="http://www.w3.org/2000/svg"><path fill="#333" d="M646.4 654.933h76.8V736h-76.8v-81.067zm93.867 0h76.8V736h-76.8v-81.067zm98.133 0h76.8V736h-76.8v-81.067zM0 782.933C0 829.867 40.533 870.4 91.733 870.4h840.534c51.2 0 91.733-38.4 91.733-87.467V420.267H0v362.666zM932.267 153.6H91.733C40.533 153.6 0 192 0 241.067v96h1024v-96c0-49.067-40.533-87.467-91.733-87.467zm0 0"/></symbol><symbol class="eicon" viewBox="0 0 1024 1024" id="checkbox" xmlns="http://www.w3.org/2000/svg"><path fill="#333" d="M938.667 0H85.333C38.4 0 0 38.4 0 85.333v853.334C0 985.6 38.4 1024 85.333 1024h853.334c46.933 0 85.333-38.4 85.333-85.333V85.333C1024 38.4 985.6 0 938.667 0zM851.2 311.467L405.333 750.933c-6.4 6.4-12.8 8.534-21.333 8.534s-14.933-4.267-21.333-8.534L172.8 554.667c-10.667-10.667-12.8-32-4.267-44.8l4.267-6.4c4.267-6.4 10.667-10.667 19.2-10.667s14.933 0 21.333 6.4L358.4 610.133c12.8 10.667 34.133 8.534 44.8 0l405.333-337.066c12.8-10.667 29.867-8.534 42.667 2.133 0 0 0-2.133-2.133-2.133l2.133 2.133h-2.133c4.266 4.267 6.4 12.8 6.4 19.2 4.266 4.267 2.133 10.667-4.267 17.067z"/></symbol><symbol class="ficon" viewBox="0 0 1024 1024" id="checked" xmlns="http://www.w3.org/2000/svg"><path fill="#333" d="M0 1024h1024V0L0 1024zm653.88-95.46L431.257 698.558l57.078-46.498 128.759 102.552c52.755-63.715 169.908-190.16 331.51-290.626l13.616 31.858C813.852 634.235 692.452 828.947 653.88 928.54z"/></symbol><symbol class="gicon" viewBox="0 0 1024 1024" id="checked-sub" xmlns="http://www.w3.org/2000/svg"><path fill="#333" d="M1024 518.322C1024 794.78 794.78 1024 505.678 1024 229.22 1024 0 794.78 0 518.322 0 229.22 229.22 0 505.678 0 794.78 0 1024 229.22 1024 518.322zm-741.287 45.323l144.34 149.393a22.083 22.083 0 0 0 31.543.4L798.52 378.903a21.927 21.927 0 0 0 .155-31.388l2.07 2.048c-8.681-8.57-23.44-9.327-32.812-1.513L459.62 604.895c-9.194 7.657-24.865 8.103-34.571.667l-110.703-84.836a21.57 21.57 0 0 0-30.676 4.297l-3.45 4.719c-7.101 9.639-6.122 25.021 2.493 33.903z"/></symbol><symbol class="hicon" viewBox="0 0 1024 1024" id="close" xmlns="http://www.w3.org/2000/svg"><path fill="#333" d="M896 787.2H128c-64 0-117.333-53.333-117.333-117.333V160C10.667 96 64 42.667 128 42.667h768c64 0 117.333 53.333 117.333 117.333v509.867c0 64-53.333 117.333-117.333 117.333zM128 106.667c-29.867 0-53.333 23.466-53.333 53.333v509.867c0 29.866 23.466 53.333 53.333 53.333h768c29.867 0 53.333-23.467 53.333-53.333V160c0-29.867-23.466-53.333-53.333-53.333H128zm140.8 221.866h-55.467C200.533 328.533 192 320 192 307.2v-55.467c0-12.8 8.533-21.333 21.333-21.333H268.8c12.8 0 21.333 8.533 21.333 21.333V307.2c0 10.667-10.666 21.333-21.333 21.333zm134.4 0h-55.467c-12.8 0-21.333-8.533-21.333-21.333v-55.467c0-12.8 8.533-21.333 21.333-21.333H403.2c12.8 0 21.333 8.533 21.333 21.333V307.2c0 10.667-8.533 21.333-21.333 21.333zm136.533 0h-55.466c-12.8 0-21.334-8.533-21.334-21.333v-55.467c0-12.8 8.534-21.333 21.334-21.333h55.466c12.8 0 21.334 8.533 21.334 21.333V307.2c0 10.667-10.667 21.333-21.334 21.333zm134.4 0h-55.466c-12.8 0-21.334-8.533-21.334-21.333v-55.467c0-12.8 8.534-21.333 21.334-21.333h55.466c12.8 0 21.334 8.533 21.334 21.333V307.2c0 10.667-8.534 21.333-21.334 21.333zm136.534 0H755.2c-12.8 0-21.333-8.533-21.333-21.333v-55.467c0-12.8 8.533-21.333 21.333-21.333h55.467c12.8 0 21.333 8.533 21.333 21.333V307.2c0 10.667-10.667 21.333-21.333 21.333zM268.8 473.6h-55.467c-12.8 0-21.333-8.533-21.333-21.333V396.8c0-12.8 8.533-21.333 21.333-21.333H268.8c12.8 0 21.333 8.533 21.333 21.333v55.467c0 10.666-10.666 21.333-21.333 21.333zm134.4 0h-55.467c-12.8 0-21.333-8.533-21.333-21.333V396.8c0-12.8 8.533-21.333 21.333-21.333H403.2c12.8 0 21.333 8.533 21.333 21.333v55.467c0 10.666-8.533 21.333-21.333 21.333zm136.533 0h-55.466c-12.8 0-21.334-8.533-21.334-21.333V396.8c0-12.8 8.534-21.333 21.334-21.333h55.466c12.8 0 21.334 8.533 21.334 21.333v55.467c0 10.666-10.667 21.333-21.334 21.333zm134.4 0h-55.466c-12.8 0-21.334-8.533-21.334-21.333V396.8c0-12.8 8.534-21.333 21.334-21.333h55.466c12.8 0 21.334 8.533 21.334 21.333v55.467c0 10.666-8.534 21.333-21.334 21.333zm136.534 0H755.2c-12.8 0-21.333-8.533-21.333-21.333V396.8c0-12.8 8.533-21.333 21.333-21.333h55.467c12.8 0 21.333 8.533 21.333 21.333v55.467c0 10.666-10.667 21.333-21.333 21.333zm12.8 151.467H200.533c-10.666 0-21.333-8.534-21.333-21.334v-38.4c0-12.8 10.667-21.333 21.333-21.333h620.8c10.667 0 21.334 8.533 21.334 21.333v38.4c2.133 12.8-8.534 21.334-19.2 21.334zM512 949.333l170.667-145.066H341.333z"/></symbol><symbol class="iicon" viewBox="0 0 1024 1024" id="currency" xmlns="http://www.w3.org/2000/svg"><path fill="#333" d="M896 0H128C57.6 0 0 57.6 0 128v768c0 70.4 57.6 128 128 128h768c70.4 0 128-57.6 128-128V128c0-70.4-57.6-128-128-128zM727.467 584.533c19.2 0 34.133 17.067 34.133 36.267 0 19.2-14.933 34.133-34.133 36.267h-179.2V800c0 19.2-17.067 34.133-36.267 34.133-19.2 0-34.133-14.933-36.267-34.133V657.067H298.667c-19.2 0-36.267-14.934-36.267-36.267 0-19.2 14.933-36.267 36.267-36.267h179.2V512h-179.2c-19.2 0-36.267-14.933-36.267-36.267 0-19.2 14.933-36.266 36.267-36.266h179.2v-21.334L309.333 249.6c-12.8-14.933-12.8-36.267 0-49.067 12.8-12.8 36.267-14.933 49.067 0l153.6 153.6 153.6-153.6c14.933-12.8 36.267-12.8 51.2 0 12.8 12.8 14.933 36.267 0 51.2L548.267 420.267V441.6h179.2c19.2 0 34.133 17.067 34.133 36.267 0 19.2-14.933 34.133-34.133 36.266h-179.2v70.4h179.2z"/></symbol><symbol class="jicon" viewBox="0 0 1024 1024" id="delete" xmlns="http://www.w3.org/2000/svg"><path fill="#333" d="M915.2 849.067H366.933c-29.866 0-57.6-12.8-76.8-34.134L25.6 512l264.533-300.8c19.2-21.333 46.934-34.133 76.8-34.133H915.2c44.8 0 83.2 36.266 83.2 83.2V768c0 42.667-36.267 81.067-83.2 81.067zM110.933 512L339.2 772.267c6.4 8.533 17.067 12.8 27.733 12.8H915.2a19.12 19.12 0 0 0 19.2-19.2V258.133a19.12 19.12 0 0 0-19.2-19.2H366.933c-10.666 0-21.333 4.267-27.733 12.8L110.933 512zM755.2 682.667c-8.533 0-14.933-2.134-21.333-8.534L428.8 396.8c-12.8-12.8-14.933-32-2.133-44.8 12.8-12.8 32-14.933 44.8-2.133l305.066 279.466c12.8 12.8 14.934 32 2.134 44.8-6.4 6.4-14.934 8.534-23.467 8.534zm-292.267 12.8c-8.533 0-14.933-2.134-21.333-8.534-12.8-12.8-14.933-32-2.133-44.8l279.466-305.066c12.8-12.8 32-14.934 44.8-2.134 12.8 12.8 14.934 32 2.134 44.8L486.4 684.8c-6.4 8.533-14.933 10.667-23.467 10.667z"/></symbol><symbol class="kicon" viewBox="0 0 1024 1024" id="down" xmlns="http://www.w3.org/2000/svg"><path fill="#333" d="M967.993 301.64L545.84 724.203c-4.915 4.914-11.468 7.27-18.02 7.167-6.554.102-13.004-2.253-18.021-7.167L87.646 301.64c-9.727-9.727-9.727-25.495 0-35.222s25.495-9.727 35.222 0L527.819 671.78l404.952-405.36c9.727-9.728 25.495-9.728 35.222 0s9.727 25.494 0 35.221z"/></symbol><symbol class="licon" viewBox="0 0 1024 1024" id="hui" xmlns="http://www.w3.org/2000/svg"><path fill="#333" d="M938.667 0H85.333C38.4 0 0 38.4 0 85.333v853.334C0 985.6 38.4 1024 85.333 1024h853.334c46.933 0 85.333-38.4 85.333-85.333V85.333C1024 38.4 985.6 0 938.667 0zM806.4 605.867c-49.067-2.134-100.267-2.134-160-2.134H467.2c14.933 17.067 32 27.734 44.8 36.267-14.933 10.667-68.267 55.467-164.267 138.667C480 774.4 582.4 770.133 652.8 765.867c-17.067-19.2-44.8-46.934-81.067-78.934 14.934-12.8 27.734-25.6 42.667-38.4 27.733 25.6 55.467 51.2 81.067 76.8 25.6 25.6 55.466 55.467 89.6 91.734-14.934 12.8-32 27.733-51.2 44.8-17.067-25.6-32-44.8-44.8-53.334-46.934 2.134-119.467 6.4-224 12.8-102.4 6.4-168.534 12.8-200.534 21.334-10.666-25.6-17.066-46.934-23.466-59.734 32-10.666 70.4-36.266 113.066-76.8C398.933 665.6 428.8 631.467 448 605.867h-85.333c-53.334 0-104.534 0-149.334 2.133v-53.333c49.067 2.133 96 2.133 147.2 2.133h300.8c49.067 0 98.134 0 147.2-2.133v51.2zM341.333 469.333V416c25.6 2.133 57.6 2.133 93.867 2.133h132.267c44.8 0 78.933 0 108.8-2.133v53.333c-29.867-2.133-66.134-2.133-108.8-2.133h-128c-40.534 0-72.534 0-98.134 2.133zm480 14.934C684.8 422.4 582.4 341.333 512 243.2c-93.867 106.667-196.267 192-309.333 256-19.2-27.733-36.267-44.8-51.2-51.2 74.666-25.6 145.066-68.267 211.2-128C428.8 260.267 475.733 204.8 499.2 155.733c17.067 12.8 38.4 23.467 64 32L546.133 204.8c70.4 100.267 174.934 174.933 317.867 224-19.2 19.2-32 36.267-42.667 55.467z"/></symbol><symbol class="micon" viewBox="0 0 1024 1024" id="jifen" xmlns="http://www.w3.org/2000/svg"><path fill="#333" d="M938.667 0H85.333C38.4 0 0 38.4 0 85.333v853.334C0 985.6 38.4 1024 85.333 1024h853.334c46.933 0 85.333-38.4 85.333-85.333V85.333C1024 38.4 985.6 0 938.667 0zM499.2 217.6h309.333C806.4 251.733 806.4 296.533 806.4 352v98.133c0 42.667 0 81.067 2.133 119.467H499.2c2.133-38.4 2.133-78.933 2.133-119.467v-102.4c2.134-51.2 0-96-2.133-130.133zM298.667 864c4.266-49.067 6.4-87.467 6.4-117.333V552.533c-17.067 36.267-29.867 64-42.667 83.2-12.8 19.2-32 49.067-57.6 83.2-14.933-14.933-32-25.6-53.333-36.266 29.866-29.867 57.6-66.134 83.2-110.934s44.8-87.466 57.6-132.266c-27.734 0-70.4 0-128 2.133V384c57.6 2.133 104.533 2.133 140.8 2.133V260.267c-40.534 6.4-78.934 12.8-113.067 17.066-6.4-17.066-12.8-36.266-21.333-53.333 25.6 2.133 70.4-2.133 134.4-14.933s106.666-25.6 130.133-38.4c14.933 23.466 25.6 42.666 36.267 53.333-19.2 4.267-38.4 8.533-53.334 12.8-17.066 4.267-34.133 8.533-57.6 12.8v138.667c49.067 0 85.334 0 113.067-2.134v57.6c-27.733-2.133-66.133-2.133-113.067-2.133v91.733c14.934-12.8 29.867-23.466 38.4-32 32 46.934 57.6 81.067 74.667 108.8-10.667 6.4-27.733 17.067-51.2 36.267-17.067-34.133-36.267-68.267-64-102.4v202.667c0 29.866 0 68.266 2.133 117.333h-61.866zM550.4 740.267c-29.867 40.533-61.867 78.933-98.133 119.466C437.333 844.8 422.4 832 403.2 817.067c25.6-19.2 51.2-46.934 78.933-81.067 25.6-34.133 51.2-74.667 74.667-123.733 19.2 17.066 38.4 29.866 53.333 38.4-10.666 21.333-32 49.066-59.733 89.6zm264.533 108.8c-14.933-25.6-34.133-59.734-64-100.267-27.733-40.533-49.066-70.4-66.133-87.467 14.933-10.666 32-21.333 49.067-36.266 17.066 23.466 38.4 51.2 64 83.2s49.066 66.133 72.533 102.4c-21.333 12.8-40.533 25.6-55.467 38.4zM556.8 266.667h192v256h-192z"/></symbol><symbol class="nicon" viewBox="0 0 1024 1024" id="left" xmlns="http://www.w3.org/2000/svg"><path fill="#333" d="M756.66 90.308L351.3 495.259l405.36 404.952c9.727 9.727 9.727 25.495 0 35.222s-25.495 9.727-35.222 0L298.876 513.28c-4.915-4.915-7.27-11.468-7.168-18.02-.102-6.554 2.253-13.004 7.168-18.021L721.438 55.086c9.727-9.727 25.495-9.727 35.222 0s9.727 25.495 0 35.222z"/></symbol><symbol class="oicon" viewBox="0 0 1024 1024" id="point" xmlns="http://www.w3.org/2000/svg"><path fill="#333" d="M616.533 561.067h140.8v68.266h-140.8zm0 113.066h140.8v78.934h-140.8zM938.667 0H85.333C38.4 0 0 38.4 0 85.333v853.334C0 985.6 38.4 1024 85.333 1024h853.334c46.933 0 85.333-38.4 85.333-85.333V85.333C1024 38.4 985.6 0 938.667 0zm-499.2 211.2c6.4 17.067 12.8 38.4 21.333 61.867 8.533 23.466 14.933 44.8 21.333 64-17.066 6.4-36.266 12.8-53.333 21.333-6.4-29.867-19.2-72.533-38.4-128 12.8-4.267 29.867-10.667 49.067-19.2zm-198.4 640c4.266-40.533 6.4-78.933 6.4-119.467V416c-12.8 25.6-32 57.6-55.467 96-12.8-19.2-25.6-34.133-38.4-44.8 14.933-19.2 36.267-59.733 68.267-119.467 32-59.733 51.2-119.466 61.866-183.466 19.2 10.666 44.8 19.2 72.534 27.733-14.934 17.067-32 59.733-53.334 132.267v401.066c0 49.067 0 91.734 2.134 125.867h-64zM409.6 793.6c-12.8-17.067-23.467-32-36.267-44.8 14.934-14.933 23.467-34.133 21.334-59.733v-236.8c-21.334 0-42.667 0-64 2.133v-53.333c25.6 2.133 49.066 2.133 72.533 2.133h49.067c-4.267 23.467-6.4 59.733-6.4 108.8v185.6c17.066-12.8 34.133-25.6 49.066-38.4C499.2 678.4 505.6 697.6 512 712.533c-51.2 36.267-85.333 64-102.4 81.067zm456.533-339.2c-23.466-4.267-53.333-6.4-87.466-6.4h-51.2c-17.067 19.2-32 42.667-51.2 66.133h134.4c-2.134 29.867-2.134 85.334-2.134 168.534 0 81.066 2.134 134.4 6.4 155.733h-57.6v-42.667h-140.8v53.334h-57.6c4.267-23.467 6.4-104.534 6.4-243.2-17.066 12.8-32 25.6-51.2 42.666-14.933-17.066-27.733-34.133-42.666-49.066 32-14.934 64-32 93.866-53.334-2.133-14.933-4.266-25.6-6.4-32h44.8c27.734-25.6 49.067-49.066 59.734-66.133H588.8c-38.4 0-68.267 2.133-93.867 6.4v-53.333C518.4 403.2 544 403.2 573.867 403.2h49.066V294.4c-32 0-61.866 0-87.466 2.133v-51.2c25.6 2.134 55.466 2.134 87.466 2.134 0-36.267 0-66.134-2.133-89.6h57.6c-2.133 21.333-2.133 51.2-2.133 89.6 17.066 0 38.4 0 64-2.134v53.334c-21.334-2.134-42.667-2.134-64-2.134v108.8H697.6c44.8-76.8 70.4-134.4 81.067-177.066l66.133 29.866c-14.933 10.667-29.867 32-44.8 66.134-17.067 34.133-29.867 61.866-42.667 81.066h32c27.734 0 53.334 0 78.934-2.133v51.2z"/></symbol><symbol class="picon" viewBox="0 0 1024 1024" id="quan" xmlns="http://www.w3.org/2000/svg"><path fill="#333" d="M599.467 488.533h-140.8c-32 42.667-68.267 76.8-108.8 102.4 29.866 2.134 55.466 2.134 78.933 2.134h256c-27.733-19.2-55.467-55.467-85.333-104.534zM938.667 0H85.333C38.4 0 0 38.4 0 85.333v853.334C0 985.6 38.4 1024 85.333 1024h853.334c46.933 0 85.333-38.4 85.333-85.333V85.333C1024 38.4 985.6 0 938.667 0zm-243.2 166.4c14.933 10.667 32 21.333 57.6 36.267-12.8 10.666-25.6 23.466-38.4 42.666-14.934 17.067-29.867 38.4-49.067 64-17.067-14.933-32-25.6-51.2-32 44.8-53.333 72.533-89.6 81.067-110.933zM326.4 179.2c25.6 32 49.067 64 68.267 96-23.467 8.533-42.667 17.067-53.334 29.867-10.666-21.334-32-53.334-66.133-93.867 19.2-8.533 36.267-19.2 51.2-32zM832 672c-44.8-12.8-87.467-34.133-132.267-66.133-4.266 100.266-6.4 162.133-8.533 183.466-2.133 23.467-12.8 38.4-32 46.934C640 844.8 608 851.2 565.333 853.333c-4.266-23.466-12.8-49.066-27.733-72.533 36.267 6.4 61.867 6.4 76.8-2.133S637.867 725.333 637.867 640H505.6c-14.933 64-42.667 113.067-83.2 145.067s-87.467 57.6-134.4 74.666c-12.8-21.333-29.867-40.533-53.333-57.6 76.8-17.066 128-40.533 160-68.266 29.866-27.734 46.933-59.734 51.2-93.867-49.067 0-89.6 0-117.334 2.133v-38.4c-32 21.334-70.4 42.667-117.333 59.734-8.533-19.2-19.2-40.534-36.267-59.734 49.067-12.8 93.867-29.866 132.267-51.2 38.4-21.333 66.133-44.8 83.2-66.133h-91.733c-36.267 0-72.534 0-110.934 2.133V435.2c38.4 2.133 76.8 2.133 113.067 2.133h117.333C433.067 416 441.6 390.4 448 362.667h-98.133c-40.534 0-78.934 0-113.067 2.133v-53.333c36.267 2.133 74.667 2.133 113.067 2.133H460.8c10.667-64 14.933-117.333 14.933-162.133 19.2 4.266 44.8 8.533 72.534 12.8-8.534 10.666-14.934 29.866-17.067 59.733-4.267 29.867-8.533 59.733-14.933 89.6H691.2c36.267 0 72.533 0 108.8-2.133V364.8c-34.133-2.133-68.267-2.133-104.533-2.133h-185.6c-6.4 25.6-14.934 51.2-23.467 74.666H736c34.133 0 70.4 0 108.8-2.133v55.467c-36.267-2.134-72.533-2.134-108.8-2.134h-64c21.333 38.4 51.2 66.134 85.333 83.2C791.467 588.8 832 601.6 876.8 612.267 853.333 629.333 840.533 648.533 832 672z"/></symbol><symbol class="qicon" viewBox="0 0 1024 1024" id="question" xmlns="http://www.w3.org/2000/svg"><path fill="#333" d="M512 1024C228.267 1024 0 795.733 0 512S228.267 0 512 0s512 228.267 512 512-228.267 512-512 512zm0-957.867C266.667 66.133 66.133 266.667 66.133 512c0 245.333 200.534 445.867 445.867 445.867 245.333 0 445.867-200.534 445.867-445.867 0-245.333-200.534-445.867-445.867-445.867zm-40.533 620.8h81.066V768h-81.066zM648.533 448c-8.533 14.933-25.6 34.133-49.066 57.6-25.6 23.467-40.534 42.667-44.8 53.333-4.267 10.667-6.4 27.734-6.4 53.334l6.4 21.333H473.6l-4.267-21.333c2.134-27.734 6.4-51.2 12.8-70.4 8.534-19.2 25.6-42.667 51.2-70.4 23.467-23.467 38.4-42.667 44.8-51.2 4.267-8.534 6.4-19.2 6.4-32 0-19.2-6.4-36.267-19.2-46.934-12.8-10.666-29.866-19.2-53.333-19.2-49.067 0-66.133 34.134-70.4 96h-78.933V409.6c2.133-27.733 4.266-49.067 10.666-66.133 6.4-17.067 17.067-32 32-46.934 14.934-14.933 32-23.466 51.2-29.866 19.2-6.4 36.267-10.667 57.6-10.667 40.534 0 76.8 12.8 104.534 36.267 27.733 23.466 40.533 57.6 40.533 100.266 2.133 21.334-2.133 38.4-10.667 55.467z"/></symbol><symbol class="ricon" viewBox="0 0 1024 1024" id="right" xmlns="http://www.w3.org/2000/svg"><path fill="#333" d="M756.456 513.28L334.303 935.433c-9.727 9.727-25.495 9.727-35.223 0s-9.727-25.495 0-35.222l404.952-404.952-404.85-404.951c-9.726-9.727-9.726-25.495 0-35.222s25.496-9.727 35.223 0l422.153 422.153c5.017 4.914 7.372 11.467 7.27 18.02 0 6.553-2.355 13.106-7.372 18.02z"/></symbol><symbol class="sicon" viewBox="0 0 1024 1024" id="top" xmlns="http://www.w3.org/2000/svg"><path fill="#333" d="M967.993 724.1c-9.727 9.727-25.495 9.727-35.222 0L527.819 318.74 122.765 724.1c-9.727 9.727-25.495 9.727-35.222 0s-9.727-25.495 0-35.222l422.153-422.562c4.915-4.915 11.468-7.27 18.02-7.168 6.554-.102 13.004 2.253 18.021 7.168L967.89 688.878c9.83 9.727 9.83 25.495.103 35.222z"/></symbol><symbol class="ticon" viewBox="0 0 1024 1024" id="wechat" xmlns="http://www.w3.org/2000/svg"><path fill="#333" d="M896 0H128C57.6 0 0 57.6 0 128v768c0 70.4 57.6 128 128 128h768c70.4 0 128-57.6 128-128V128c0-70.4-57.6-128-128-128zM512 787.2c-44.8 0-83.2-6.4-121.6-19.2-25.6 12.8-64 44.8-76.8 51.2-25.6 12.8-19.2-12.8-19.2-12.8l12.8-76.8c-76.8-51.2-121.6-134.4-121.6-224 0-160 147.2-288 326.4-288 108.8 0 211.2 51.2 268.8 121.6l-320 147.2s-25.6 12.8-51.2-6.4l-51.2-38.4s-38.4-32-19.2 19.2L390.4 576s6.4 32 44.8 12.8c32-12.8 268.8-160 371.2-217.6 19.2 38.4 32 83.2 32 128 0 153.6-147.2 288-326.4 288zm0 0"/></symbol></svg>