<?xml version="1.0" standalone="no"?><!DOCTYPE svg PUBLIC "-//W3C//DTD SVG 1.1//EN" "http://www.w3.org/Graphics/SVG/1.1/DTD/svg11.dtd"><svg class="icon" width="32px" height="32.00px" viewBox="0 0 1024 1024" version="1.1" xmlns="http://www.w3.org/2000/svg"><path fill="#333333" d="M512 889.6c-209.066667 0-377.6-168.533333-377.6-377.6 0-209.066667 168.533333-377.6 377.6-377.6 209.066667 0 377.6 168.533333 377.6 377.6 0 209.066667-168.533333 377.6-377.6 377.6z m0-706.133333C330.666667 183.466667 183.466667 330.666667 183.466667 512S330.666667 840.533333 512 840.533333 840.533333 693.333333 840.533333 512 693.333333 183.466667 512 183.466667zM689.066667 533.333333H334.933333c-12.8 0-25.6-10.666667-25.6-25.6 0-12.8 10.666667-25.6 25.6-25.6h356.266667c12.8 0 25.6 10.666667 25.6 25.6-2.133333 14.933333-12.8 25.6-27.733333 25.6zM486.4 686.933333V330.666667c0-12.8 10.666667-25.6 25.6-25.6 12.8 0 25.6 10.666667 25.6 25.6v356.266666c0 12.8-10.666667 25.6-25.6 25.6-12.8-2.133333-25.6-12.8-25.6-25.6z" /></svg>