<?xml version="1.0" standalone="no"?><!DOCTYPE svg PUBLIC "-//W3C//DTD SVG 1.1//EN" "http://www.w3.org/Graphics/SVG/1.1/DTD/svg11.dtd"><svg class="icon" width="32px" height="29.55px" viewBox="0 0 1109 1024" version="1.1" xmlns="http://www.w3.org/2000/svg"><path fill="#333333" d="M1027.282051 701.046154V196.923077c0-108.307692-88.615385-196.923077-196.923077-196.923077H200.205128C91.897436 0 3.282051 88.615385 3.282051 196.923077v630.153846c0 108.307692 88.615385 196.923077 196.923077 196.923077h630.153846c96.492308 0 177.230769-70.892308 192.984616-161.476923-53.169231-21.661538-277.661538-120.123077-395.815385-177.230769-90.584615 108.307692-183.138462 173.292308-324.923077 173.292307-141.784615 0-236.307692-86.646154-224.492307-194.953846 7.876923-70.892308 55.138462-185.107692 263.876923-165.415384 110.276923 9.846154 159.507692 31.507692 250.092307 61.046153 23.630769-43.323077 43.323077-88.615385 57.107693-139.815384H251.405128v-39.384616h196.923077v-70.892307H208.082051v-43.323077h240.246154V165.415385s1.969231-15.753846 19.692308-15.753847h98.461538v118.153847h256v43.323077h-256v70.892307h208.738462c-19.692308 78.769231-49.230769 149.661538-84.676923 212.676923C751.589744 616.369231 1027.282051 701.046154 1027.282051 701.046154zM121.435897 657.723077c-7.876923 39.384615 15.753846 133.907692 165.415385 133.907692 92.553846 0 181.169231-55.138462 254.030769-149.661538-102.4-49.230769-189.046154-74.830769-283.56923-74.830769-84.676923 0-128 51.2-135.876924 90.584615z" /></svg>