<?xml version="1.0" standalone="no"?><!DOCTYPE svg PUBLIC "-//W3C//DTD SVG 1.1//EN" "http://www.w3.org/Graphics/SVG/1.1/DTD/svg11.dtd"><svg class="icon" width="32px" height="32.00px" viewBox="0 0 1024 1024" version="1.1" xmlns="http://www.w3.org/2000/svg"><path fill="#333333" d="M1024 518.322087C1024 794.779826 794.779826 1024 505.677913 1024 229.220174 1024 0 794.779826 0 518.322087 0 229.220174 229.220174 0 505.677913 0 794.779826 0 1024 229.220174 1024 518.322087zM282.713043 563.645217l144.339479 149.392696a22.082783 22.082783 0 0 0 31.543652 0.400696l339.923478-334.536348a21.926957 21.926957 0 0 0 0.155826-31.387826l2.070261 2.048c-8.681739-8.570435-23.440696-9.327304-32.812522-1.513739l-308.313043 256.845913c-9.193739 7.657739-24.865391 8.102957-34.571131 0.667826l-110.703304-84.836174a21.570783 21.570783 0 0 0-30.675478 4.296348l-3.450435 4.719304c-7.101217 9.638957-6.121739 25.021217 2.493217 33.903304z" /></svg>