<?xml version="1.0" standalone="no"?><!DOCTYPE svg PUBLIC "-//W3C//DTD SVG 1.1//EN" "http://www.w3.org/Graphics/SVG/1.1/DTD/svg11.dtd"><svg class="icon" width="32px" height="32.00px" viewBox="0 0 1024 1024" version="1.1" xmlns="http://www.w3.org/2000/svg"><path fill="#333333" d="M938.666667 0H85.333333C38.4 0 0 38.4 0 85.333333v853.333334c0 46.933333 38.4 85.333333 85.333333 85.333333h853.333334c46.933333 0 85.333333-38.4 85.333333-85.333333V85.333333c0-46.933333-38.4-85.333333-85.333333-85.333333z m-87.466667 311.466667L405.333333 750.933333c-6.4 6.4-12.8 8.533333-21.333333 8.533334s-14.933333-4.266667-21.333333-8.533334L172.8 554.666667c-10.666667-10.666667-12.8-32-4.266667-44.8l4.266667-6.4c4.266667-6.4 10.666667-10.666667 19.2-10.666667s14.933333 0 21.333333 6.4l145.066667 110.933333c12.8 10.666667 34.133333 8.533333 44.8 0l405.333333-337.066666c12.8-10.666667 29.866667-8.533333 42.666667 2.133333 0 0 0-2.133333-2.133333-2.133333l2.133333 2.133333h-2.133333c4.266667 4.266667 6.4 12.8 6.4 19.2 4.266667 4.266667 2.133333 10.666667-4.266667 17.066667z" /></svg>