<?xml version="1.0" standalone="no"?><!DOCTYPE svg PUBLIC "-//W3C//DTD SVG 1.1//EN" "http://www.w3.org/Graphics/SVG/1.1/DTD/svg11.dtd"><svg class="icon" width="32px" height="32.00px" viewBox="0 0 1024 1024" version="1.1" xmlns="http://www.w3.org/2000/svg"><path fill="#333333" d="M896 787.2H128c-64 0-117.333333-53.333333-117.333333-117.333333V160C10.666667 96 64 42.666667 128 42.666667h768c64 0 117.333333 53.333333 117.333333 117.333333v509.866667c0 64-53.333333 117.333333-117.333333 117.333333zM128 106.666667C98.133333 106.666667 74.666667 130.133333 74.666667 160v509.866667c0 29.866667 23.466667 53.333333 53.333333 53.333333h768c29.866667 0 53.333333-23.466667 53.333333-53.333333V160C949.333333 130.133333 925.866667 106.666667 896 106.666667H128zM268.8 328.533333H213.333333c-12.8 0-21.333333-8.533333-21.333333-21.333333v-55.466667c0-12.8 8.533333-21.333333 21.333333-21.333333h55.466667c12.8 0 21.333333 8.533333 21.333333 21.333333v55.466667c0 10.666667-10.666667 21.333333-21.333333 21.333333zM403.2 328.533333h-55.466667c-12.8 0-21.333333-8.533333-21.333333-21.333333v-55.466667c0-12.8 8.533333-21.333333 21.333333-21.333333h55.466667c12.8 0 21.333333 8.533333 21.333333 21.333333v55.466667c0 10.666667-8.533333 21.333333-21.333333 21.333333zM539.733333 328.533333h-55.466666c-12.8 0-21.333333-8.533333-21.333334-21.333333v-55.466667c0-12.8 8.533333-21.333333 21.333334-21.333333h55.466666c12.8 0 21.333333 8.533333 21.333334 21.333333v55.466667c0 10.666667-10.666667 21.333333-21.333334 21.333333zM674.133333 328.533333H618.666667c-12.8 0-21.333333-8.533333-21.333334-21.333333v-55.466667c0-12.8 8.533333-21.333333 21.333334-21.333333h55.466666c12.8 0 21.333333 8.533333 21.333334 21.333333v55.466667c0 10.666667-8.533333 21.333333-21.333334 21.333333zM810.666667 328.533333h-55.466667c-12.8 0-21.333333-8.533333-21.333333-21.333333v-55.466667c0-12.8 8.533333-21.333333 21.333333-21.333333H810.666667c12.8 0 21.333333 8.533333 21.333333 21.333333v55.466667c0 10.666667-10.666667 21.333333-21.333333 21.333333zM268.8 473.6H213.333333c-12.8 0-21.333333-8.533333-21.333333-21.333333v-55.466667c0-12.8 8.533333-21.333333 21.333333-21.333333h55.466667c12.8 0 21.333333 8.533333 21.333333 21.333333v55.466667c0 10.666667-10.666667 21.333333-21.333333 21.333333zM403.2 473.6h-55.466667c-12.8 0-21.333333-8.533333-21.333333-21.333333v-55.466667c0-12.8 8.533333-21.333333 21.333333-21.333333h55.466667c12.8 0 21.333333 8.533333 21.333333 21.333333v55.466667c0 10.666667-8.533333 21.333333-21.333333 21.333333zM539.733333 473.6h-55.466666c-12.8 0-21.333333-8.533333-21.333334-21.333333v-55.466667c0-12.8 8.533333-21.333333 21.333334-21.333333h55.466666c12.8 0 21.333333 8.533333 21.333334 21.333333v55.466667c0 10.666667-10.666667 21.333333-21.333334 21.333333zM674.133333 473.6H618.666667c-12.8 0-21.333333-8.533333-21.333334-21.333333v-55.466667c0-12.8 8.533333-21.333333 21.333334-21.333333h55.466666c12.8 0 21.333333 8.533333 21.333334 21.333333v55.466667c0 10.666667-8.533333 21.333333-21.333334 21.333333zM810.666667 473.6h-55.466667c-12.8 0-21.333333-8.533333-21.333333-21.333333v-55.466667c0-12.8 8.533333-21.333333 21.333333-21.333333H810.666667c12.8 0 21.333333 8.533333 21.333333 21.333333v55.466667c0 10.666667-10.666667 21.333333-21.333333 21.333333zM823.466667 625.066667H200.533333c-10.666667 0-21.333333-8.533333-21.333333-21.333334v-38.4c0-12.8 10.666667-21.333333 21.333333-21.333333h620.8c10.666667 0 21.333333 8.533333 21.333334 21.333333v38.4c2.133333 12.8-8.533333 21.333333-19.2 21.333334zM512 949.333333l170.666667-145.066666H341.333333z" /></svg>