<?xml version="1.0" standalone="no"?><!DOCTYPE svg PUBLIC "-//W3C//DTD SVG 1.1//EN" "http://www.w3.org/Graphics/SVG/1.1/DTD/svg11.dtd"><svg class="icon" width="32px" height="32.00px" viewBox="0 0 1024 1024" version="1.1" xmlns="http://www.w3.org/2000/svg"><path fill="#333333" d="M896 0H128C57.6 0 0 57.6 0 128v768c0 70.4 57.6 128 128 128h768c70.4 0 128-57.6 128-128V128c0-70.4-57.6-128-128-128z m-168.533333 584.533333c19.2 0 34.133333 17.066667 34.133333 36.266667 0 19.2-14.933333 34.133333-34.133333 36.266667h-179.2v142.933333c0 19.2-17.066667 34.133333-36.266667 34.133333-19.2 0-34.133333-14.933333-36.266667-34.133333v-142.933333H298.666667c-19.2 0-36.266667-14.933333-36.266667-36.266667 0-19.2 14.933333-36.266667 36.266667-36.266667h179.2V512H298.666667c-19.2 0-36.266667-14.933333-36.266667-36.266667 0-19.2 14.933333-36.266667 36.266667-36.266666h179.2v-21.333334l-168.533334-168.533333c-12.8-14.933333-12.8-36.266667 0-49.066667 12.8-12.8 36.266667-14.933333 49.066667 0l153.6 153.6 153.6-153.6c14.933333-12.8 36.266667-12.8 51.2 0 12.8 12.8 14.933333 36.266667 0 51.2l-168.533333 168.533334v21.333333h179.2c19.2 0 34.133333 17.066667 34.133333 36.266667 0 19.2-14.933333 34.133333-34.133333 36.266666h-179.2v70.4h179.2z" /></svg>