<?xml version="1.0" standalone="no"?><!DOCTYPE svg PUBLIC "-//W3C//DTD SVG 1.1//EN" "http://www.w3.org/Graphics/SVG/1.1/DTD/svg11.dtd"><svg class="icon" width="32px" height="32.00px" viewBox="0 0 1024 1024" version="1.1" xmlns="http://www.w3.org/2000/svg"><path fill="#333333" d="M915.2 849.066667H366.933333c-29.866667 0-57.6-12.8-76.8-34.133334L25.6 512 290.133333 211.2c19.2-21.333333 46.933333-34.133333 76.8-34.133333h548.266667c44.8 0 83.2 36.266667 83.2 83.2V768c0 42.666667-36.266667 81.066667-83.2 81.066667zM110.933333 512l228.266667 260.266667c6.4 8.533333 17.066667 12.8 27.733333 12.8h548.266667c10.666667 0 19.2-8.533333 19.2-19.2V258.133333c0-10.666667-8.533333-19.2-19.2-19.2H366.933333c-10.666667 0-21.333333 4.266667-27.733333 12.8L110.933333 512zM755.2 682.666667c-8.533333 0-14.933333-2.133333-21.333333-8.533334l-305.066667-277.333333c-12.8-12.8-14.933333-32-2.133333-44.8 12.8-12.8 32-14.933333 44.8-2.133333l305.066666 279.466666c12.8 12.8 14.933333 32 2.133334 44.8-6.4 6.4-14.933333 8.533333-23.466667 8.533334zM462.933333 695.466667c-8.533333 0-14.933333-2.133333-21.333333-8.533334-12.8-12.8-14.933333-32-2.133333-44.8l279.466666-305.066666c12.8-12.8 32-14.933333 44.8-2.133334 12.8 12.8 14.933333 32 2.133334 44.8L486.4 684.8c-6.4 8.533333-14.933333 10.666667-23.466667 10.666667z" /></svg>