<?xml version="1.0" standalone="no"?><!DOCTYPE svg PUBLIC "-//W3C//DTD SVG 1.1//EN" "http://www.w3.org/Graphics/SVG/1.1/DTD/svg11.dtd"><svg class="icon" width="32px" height="32.00px" viewBox="0 0 1024 1024" version="1.1" xmlns="http://www.w3.org/2000/svg"><path fill="#333333" d="M616.533333 561.066667h140.8v68.266666h-140.8zM616.533333 674.133333h140.8v78.933334h-140.8zM938.666667 0H85.333333C38.4 0 0 38.4 0 85.333333v853.333334c0 46.933333 38.4 85.333333 85.333333 85.333333h853.333334c46.933333 0 85.333333-38.4 85.333333-85.333333V85.333333c0-46.933333-38.4-85.333333-85.333333-85.333333zM439.466667 211.2c6.4 17.066667 12.8 38.4 21.333333 61.866667 8.533333 23.466667 14.933333 44.8 21.333333 64-17.066667 6.4-36.266667 12.8-53.333333 21.333333-6.4-29.866667-19.2-72.533333-38.4-128 12.8-4.266667 29.866667-10.666667 49.066667-19.2z m-198.4 640c4.266667-40.533333 6.4-78.933333 6.4-119.466667V416C234.666667 441.6 215.466667 473.6 192 512c-12.8-19.2-25.6-34.133333-38.4-44.8 14.933333-19.2 36.266667-59.733333 68.266667-119.466667 32-59.733333 51.2-119.466667 61.866666-183.466666 19.2 10.666667 44.8 19.2 72.533334 27.733333-14.933333 17.066667-32 59.733333-53.333334 132.266667V725.333333c0 49.066667 0 91.733333 2.133334 125.866667h-64z m168.533333-57.6c-12.8-17.066667-23.466667-32-36.266667-44.8 14.933333-14.933333 23.466667-34.133333 21.333334-59.733333V452.266667c-21.333333 0-42.666667 0-64 2.133333v-53.333333c25.6 2.133333 49.066667 2.133333 72.533333 2.133333h49.066667c-4.266667 23.466667-6.4 59.733333-6.4 108.8v185.6c17.066667-12.8 34.133333-25.6 49.066666-38.4 4.266667 19.2 10.666667 38.4 17.066667 53.333333-51.2 36.266667-85.333333 64-102.4 81.066667z m456.533333-339.2c-23.466667-4.266667-53.333333-6.4-87.466666-6.4h-51.2c-17.066667 19.2-32 42.666667-51.2 66.133333H810.666667c-2.133333 29.866667-2.133333 85.333333-2.133334 168.533334 0 81.066667 2.133333 134.4 6.4 155.733333h-57.6v-42.666667h-140.8v53.333334h-57.6c4.266667-23.466667 6.4-104.533333 6.4-243.2-17.066667 12.8-32 25.6-51.2 42.666666-14.933333-17.066667-27.733333-34.133333-42.666666-49.066666 32-14.933333 64-32 93.866666-53.333334-2.133333-14.933333-4.266667-25.6-6.4-32h44.8c27.733333-25.6 49.066667-49.066667 59.733334-66.133333h-74.666667c-38.4 0-68.266667 2.133333-93.866667 6.4v-53.333333c23.466667 2.133333 49.066667 2.133333 78.933334 2.133333h49.066666v-108.8c-32 0-61.866667 0-87.466666 2.133333v-51.2c25.6 2.133333 55.466667 2.133333 87.466666 2.133334 0-36.266667 0-66.133333-2.133333-89.6h57.6c-2.133333 21.333333-2.133333 51.2-2.133333 89.6 17.066667 0 38.4 0 64-2.133334V298.666667c-21.333333-2.133333-42.666667-2.133333-64-2.133334V405.333333h21.333333c44.8-76.8 70.4-134.4 81.066667-177.066666l66.133333 29.866666c-14.933333 10.666667-29.866667 32-44.8 66.133334-17.066667 34.133333-29.866667 61.866667-42.666667 81.066666H789.333333c27.733333 0 53.333333 0 78.933334-2.133333v51.2z" /></svg>