<?xml version="1.0" standalone="no"?><!DOCTYPE svg PUBLIC "-//W3C//DTD SVG 1.1//EN" "http://www.w3.org/Graphics/SVG/1.1/DTD/svg11.dtd"><svg class="icon" width="32px" height="32.00px" viewBox="0 0 1024 1024" version="1.1" xmlns="http://www.w3.org/2000/svg"><path fill="#333333" d="M512 1024C228.266667 1024 0 795.733333 0 512S228.266667 0 512 0s512 228.266667 512 512-228.266667 512-512 512z m0-957.866667C266.666667 66.133333 66.133333 266.666667 66.133333 512c0 245.333333 200.533333 445.866667 445.866667 445.866667 245.333333 0 445.866667-200.533333 445.866667-445.866667 0-245.333333-200.533333-445.866667-445.866667-445.866667z m0 0M471.466667 686.933333h81.066666V768h-81.066666zM648.533333 448c-8.533333 14.933333-25.6 34.133333-49.066666 57.6-25.6 23.466667-40.533333 42.666667-44.8 53.333333-4.266667 10.666667-6.4 27.733333-6.4 53.333334l6.4 21.333333h-81.066667l-4.266667-21.333333c2.133333-27.733333 6.4-51.2 12.8-70.4 8.533333-19.2 25.6-42.666667 51.2-70.4 23.466667-23.466667 38.4-42.666667 44.8-51.2 4.266667-8.533333 6.4-19.2 6.4-32 0-19.2-6.4-36.266667-19.2-46.933334-12.8-10.666667-29.866667-19.2-53.333333-19.2-49.066667 0-66.133333 34.133333-70.4 96H362.666667v-8.533333c2.133333-27.733333 4.266667-49.066667 10.666666-66.133333 6.4-17.066667 17.066667-32 32-46.933334 14.933333-14.933333 32-23.466667 51.2-29.866666 19.2-6.4 36.266667-10.666667 57.6-10.666667 40.533333 0 76.8 12.8 104.533334 36.266667 27.733333 23.466667 40.533333 57.6 40.533333 100.266666 2.133333 21.333333-2.133333 38.4-10.666667 55.466667z" /></svg>