<?xml version="1.0" standalone="no"?><!DOCTYPE svg PUBLIC "-//W3C//DTD SVG 1.1//EN" "http://www.w3.org/Graphics/SVG/1.1/DTD/svg11.dtd"><svg class="icon" width="32px" height="32.00px" viewBox="0 0 1024 1024" version="1.1" xmlns="http://www.w3.org/2000/svg"><path fill="#333333" d="M896 0H128C57.6 0 0 57.6 0 128v768c0 70.4 57.6 128 128 128h768c70.4 0 128-57.6 128-128V128c0-70.4-57.6-128-128-128zM512 787.2c-44.8 0-83.2-6.4-121.6-19.2-25.6 12.8-64 44.8-76.8 51.2-25.6 12.8-19.2-12.8-19.2-12.8l12.8-76.8c-76.8-51.2-121.6-134.4-121.6-224 0-160 147.2-288 326.4-288 108.8 0 211.2 51.2 268.8 121.6l-320 147.2s-25.6 12.8-51.2-6.4l-51.2-38.4s-38.4-32-19.2 19.2l51.2 115.2s6.4 32 44.8 12.8c32-12.8 268.8-160 371.2-217.6 19.2 38.4 32 83.2 32 128 0 153.6-147.2 288-326.4 288z m0 0" /></svg>